HIERARCHY
ROOT Hips
{
	OFFSET	0.00	0.00	0.00
	CHANNELS 6 Xposition Yposition Zposition Zrotation Xrotation Yrotation
	JOINT LeftUpLeg
	{
		OFFSET	 0.126116	-0.014019	-0.065224
		CHANNELS 3 Zrotation Xrotation Yrotation
		JOINT LeftLeg
		{
			OFFSET	 0.000000	 0.000000	 0.569914
			CHANNELS 3 Zrotation Xrotation Yrotation
			JOINT LeftFoot
			{
				OFFSET	 0.000000	 0.000000	 0.544423
				CHANNELS 3 Zrotation Xrotation Yrotation
				JOINT LeftToeBase
				{
					OFFSET	 0.000000	 0.000000	 0.207117
					CHANNELS 3 Zrotation Xrotation Yrotation
					End Site
					{
						OFFSET	 0.000000	 0.000000	 0.207117
					}
				}
			}
		}
	}
	JOINT RightUpLeg
	{
		OFFSET	-0.124023	-0.008373	-0.065224
		CHANNELS 3 Zrotation Xrotation Yrotation
		JOINT RightLeg
		{
			OFFSET	 0.000000	 0.000000	 0.570047
			CHANNELS 3 Zrotation Xrotation Yrotation
			JOINT RightFoot
			{
				OFFSET	 0.000000	 0.000000	 0.544354
				CHANNELS 3 Zrotation Xrotation Yrotation
				JOINT RightToeBase
				{
					OFFSET	 0.000000	 0.000000	 0.207540
					CHANNELS 3 Zrotation Xrotation Yrotation
					End Site
					{
						OFFSET	 0.000000	 0.000000	 0.207540
					}
				}
			}
		}
	}
	JOINT Spine
	{
		OFFSET	 0.000184	-0.007763	 0.117403
		CHANNELS 3 Zrotation Xrotation Yrotation
		JOINT Spine1
		{
			OFFSET	 0.000000	 0.000000	 0.137269
			CHANNELS 3 Zrotation Xrotation Yrotation
			JOINT Spine2
			{
				OFFSET	 0.000000	 0.000000	 0.156879
				CHANNELS 3 Zrotation Xrotation Yrotation
				JOINT LeftShoulder
				{
					OFFSET	 0.080501	-0.002496	 0.160144
					CHANNELS 3 Zrotation Xrotation Yrotation
					JOINT LeftArm
					{
						OFFSET	 0.000000	 0.000000	 0.164363
						CHANNELS 3 Zrotation Xrotation Yrotation
						JOINT LeftForeArm
						{
							OFFSET	 0.000000	 0.000000	 0.364576
							CHANNELS 3 Zrotation Xrotation Yrotation
							JOINT LeftHand
							{
								OFFSET	 0.000000	 0.000000	 0.360812
								CHANNELS 3 Zrotation Xrotation Yrotation
								JOINT LeftHandIndex1
								{
									OFFSET	 0.000000	 0.000000	 0.086006
									CHANNELS 3 Zrotation Xrotation Yrotation
									JOINT LeftHandIndex2
									{
										OFFSET	 0.000000	 0.000000	 0.047236
										CHANNELS 3 Zrotation Xrotation Yrotation
										JOINT LeftHandIndex3
										{
											OFFSET	-0.004284	-0.000551	 0.038166
											CHANNELS 3 Zrotation Xrotation Yrotation
											End Site
											{
												OFFSET	-0.004284	-0.000551	 0.038166
											}
										}
									}
								}
							}
						}
					}
				}
				JOINT Neck
				{
					OFFSET	 0.000000	 0.000000	 0.176489
					CHANNELS 3 Zrotation Xrotation Yrotation
					JOINT Head
					{
						OFFSET	 0.000000	-0.001747	 0.077940
						CHANNELS 3 Zrotation Xrotation Yrotation
						End Site
						{
							OFFSET	 0.000000	-0.001747	 0.077940
						}
					}
				}
				JOINT RightShoulder
				{
					OFFSET	-0.080363	 0.000306	 0.159706
					CHANNELS 3 Zrotation Xrotation Yrotation
					JOINT RightArm
					{
						OFFSET	 0.000000	 0.000000	 0.164196
						CHANNELS 3 Zrotation Xrotation Yrotation
						JOINT RightForeArm
						{
							OFFSET	 0.000000	 0.000000	 0.365611
							CHANNELS 3 Zrotation Xrotation Yrotation
							JOINT RightHand
							{
								OFFSET	 0.000000	 0.000000	 0.360648
								CHANNELS 3 Zrotation Xrotation Yrotation
								JOINT RightHandIndex1
								{
									OFFSET	 0.000000	 0.000000	 0.069977
									CHANNELS 3 Zrotation Xrotation Yrotation
									JOINT RightHandIndex2
									{
										OFFSET	 0.000000	 0.000000	 0.052305
										CHANNELS 3 Zrotation Xrotation Yrotation
										JOINT RightHandIndex3
										{
											OFFSET	 0.009002	-0.000782	 0.042196
											CHANNELS 3 Zrotation Xrotation Yrotation
											End Site
											{
												OFFSET	 0.009002	-0.000782	 0.042196
											}
										}
									}
								}
							}
						}
					}
				}
			}
		}
	}
}
MOTION
Frames:    4
Frame Time: 0.03333334
-2.334496	-16.485960	 1.134044	-15.346140	 17.623910	 3.773861	 3.600326	-34.873690	 175.494300	-1.621356	-43.059550	-0.493685	-0.840071	 81.172720	 0.417104	-2.353869	 33.955280	-0.123998	-0.754749	-35.928840	-179.448800	-2.868131	-42.868150	-0.891149	-1.602755	 81.618150	 0.607240	 2.406433	 20.096480	-0.171188	 15.381950	 15.081050	 1.275466	 0.249160	 1.930285	-1.882036	-0.405004	-3.814856	-0.040181	-125.297100	 89.272870	-142.261200	 56.960860	 66.507530	-62.172530	 14.332790	-20.284210	-35.413590	 7.034719	-57.015530	 4.054745	-5.536484	-12.070760	-1.047752	-5.213516	-0.193813	 3.566525	-1.378229	 35.397820	-2.634230	 0.785446	 0.049674	-3.758271	-0.077304	-6.916785	 1.355113	 93.695540	 85.962590	 172.042800	-59.777120	 75.863900	 68.501170	-27.827120	-34.563840	 36.138390	-27.404040	-58.386730	 3.602303	-9.706820	-9.603230	-38.721570	 5.070815	-0.697434	-9.399699	-2.350882	 35.473990	 5.254307
-2.335688	-16.498620	 1.134295	-15.299550	 18.185480	 3.807927	 3.583050	-34.960140	 175.586700	-2.002644	-43.259160	-0.772204	-1.003498	 81.789760	 0.247692	-2.350743	 34.376110	-0.133955	-0.763307	-35.665230	-179.423300	-2.566563	-42.512020	-0.694909	-1.543925	 82.572580	 0.824173	 2.405448	 20.973270	-0.153720	 12.363340	 14.743550	 1.027170	 1.271649	 1.572581	-1.965786	 0.697066	-4.204388	 0.071507	-123.410300	 89.228740	-144.096200	 60.562960	 67.450750	-63.445920	 16.889620	-21.197130	-34.551450	 8.255205	-55.506830	 4.360715	-5.109031	-11.671110	-0.082734	-5.213516	-0.193813	 3.566525	-1.378229	 35.397820	-2.634230	 0.731367	-0.177340	-3.586326	 0.112594	-7.364032	 1.298148	 93.657600	 85.995620	 172.169200	-53.676600	 78.025360	 60.468990	-31.234340	-32.888050	 32.293380	-30.123440	-56.913180	 2.942575	-9.267622	-8.714626	-38.323620	 5.070815	-0.697434	-9.399699	-2.350882	 35.473990	 5.254307
-2.336873	-16.510060	 1.134390	-15.502990	 18.603040	 3.865622	 3.545285	-34.973820	 175.628600	-2.083076	-43.577610	-0.863159	-1.070718	 82.283370	 0.205522	-2.343298	 35.326190	-0.156745	-0.737736	-35.331890	-179.489300	-2.316226	-42.272810	-0.512260	-1.453399	 83.143070	 0.972921	 2.404829	 21.425730	-0.144657	 9.260059	 14.477240	 0.845667	 2.380433	 1.198611	-1.928658	 1.864600	-4.598195	 0.197649	-119.781500	 89.131140	-147.645200	 63.419980	 68.244740	-64.368610	 19.191320	-22.069640	-33.861260	 9.301951	-53.333990	 4.371409	-4.449773	-11.046110	 1.431781	-5.213516	-0.193813	 3.566525	-1.378229	 35.397820	-2.634230	 0.768430	-0.450252	-3.424997	 0.332377	-7.813807	 1.278363	 93.732640	 86.110880	 172.190400	-45.281700	 79.632610	 50.282260	-33.626020	-32.106620	 30.092850	-32.454030	-54.779830	 2.472701	-8.932544	-7.960822	-38.065810	 5.070815	-0.697434	-9.399699	-2.350882	 35.473990	 5.254307
-2.337769	-16.519620	 1.134924	-15.816790	 18.949400	 3.947683	 3.559366	-34.858230	 175.680500	-2.184504	-43.711140	-0.934255	-1.126463	 82.513470	 0.179770	-2.336869	 36.095330	-0.175506	-0.738341	-35.292710	-179.570100	-2.351698	-42.171330	-0.536479	-1.485502	 83.339940	 0.990755	 2.404633	 21.552120	-0.142119	 6.146143	 14.260280	 0.610729	 3.422718	 0.940937	-1.786232	 3.016891	-4.857949	 0.326624	-114.920500	 88.974740	-152.486200	 65.265510	 68.992260	-64.735840	 20.707820	-22.794050	-33.412640	 9.863585	-50.671550	 4.122353	-4.072183	-10.628610	 2.313420	-5.213516	-0.193813	 3.566525	-1.378229	 35.397820	-2.634230	 0.850635	-0.542302	-3.240791	 0.594199	-8.239272	 1.447178	 93.985810	 86.321130	 172.012900	-37.131260	 80.483240	 40.738940	-35.049390	-31.813300	 28.984610	-33.895190	-52.147530	 2.262851	-8.757808	-7.573569	-37.924950	 5.070815	-0.697434	-9.399699	-2.350882	 35.473990	 5.254307
